<svg width="1440" height="294" viewBox="0 0 1440 294" fill="none" xmlns="http://www.w3.org/2000/svg">
<path d="M1465.56 255.509C1466.88 243.943 1467.99 232.343 1468.86 220.709C1469.54 211.769 1472.14 201.779 1467.39 192.709C1462.89 184.059 1451.19 179.429 1437 178.599C1420.05 177.599 1402.79 178.439 1386.14 179.079C1351.46 180.396 1316.88 183.642 1282.61 188.799C1248.09 194.029 1215.6 202.629 1180.32 206.559C1163.86 208.389 1146.57 209.159 1129.27 207.149C1110.2 204.929 1094.75 198.929 1078.26 192.379C1062.93 186.279 1047.16 181.809 1029.64 180.019C1011.73 178.199 993.876 178.739 976.594 180.069C943.46 182.619 911.354 188.299 876.727 186.219C861.49 185.309 845.935 182.979 832.065 177.979C819.673 173.531 808.602 166.327 799.789 156.979C786.386 142.979 777.464 126.449 755.7 115.759C729.761 102.999 693.099 103.759 663.779 104.019C629.47 104.329 595.838 107.019 562.81 110.729C496.977 118.109 433.211 129.439 366.414 134.919C349.524 136.309 332.433 137.369 315.182 137.739C296.883 138.139 277.365 137.569 259.734 132.129C237.895 125.379 224.703 112.319 214.891 99.4595C197.26 76.3495 185.848 44.9495 143.58 32.2695C110.012 22.2095 73.5621 29.4595 42.7914 34.9095C8.88428 40.9095 -24.3553 47.9795 -56.6413 56.1095C-86.8504 63.7195 -115.979 72.5095 -144.493 81.9595C-144.111 76.8095 -143.666 71.6795 -143.126 66.5495C-140.893 45.1145 -137.183 23.8395 -132.021 2.85946C-131.258 -0.200536 -139.438 -1.21054 -140.169 1.85946C-162.114 90.6895 -159.677 183.049 -131.407 275.079C-128.45 284.699 -126.543 295.349 -119.189 304.529C-112.524 312.859 -100.646 318.469 -86.8928 322.049C-70.2253 326.369 -52.3499 328.839 -35.1632 331.569C-15.1933 334.756 4.84367 337.639 24.9478 340.219C104.418 350.509 184.322 356.709 264.057 363.109L744.722 401.649C905.477 414.543 1066.23 427.423 1226.99 440.289C1282.81 444.759 1347.94 451.019 1394.14 432.429C1418.3 422.699 1431.45 406.779 1438.55 389.659C1447.11 368.969 1450.57 346.999 1454.75 325.549C1459.26 302.329 1462.86 278.983 1465.56 255.509Z" fill="#62B6CB"/>
<path d="M1454.75 325.569C1459.26 302.336 1462.86 278.986 1465.56 255.519C1465.92 252.369 1466.22 249.209 1466.55 246.049C1420.96 240.707 1374.95 239.207 1329.07 241.569C1222.22 247.139 1110.3 273.099 1010.8 238.089C993.59 232.039 977.113 224.209 958.782 220.929C926.931 215.209 895.206 223.929 864.361 229.819C833.516 235.709 796.738 237.749 771.276 221.819C754.884 211.559 746.492 195.639 730.237 185.249C705.019 169.139 668.696 168.309 636.039 168.249C462 167.909 419.309 176.699 311.897 184.569C278.043 187.049 242.918 193.129 209.042 187.749C175.167 182.369 144.841 175.909 128.799 152.749C121.636 142.399 118.129 130.639 108.37 121.449C91.2362 105.319 60.5396 102.029 33.753 102.779C9.88074 103.436 -13.8672 106.283 -37.1553 111.279C-65.436 117.349 -90.9829 126.849 -117.907 135.109C-130.061 138.829 -142.172 142.469 -154.167 146.199C-153.091 168.449 -150.557 190.615 -146.58 212.569C-123.615 208.909 -100.555 205.516 -77.3989 202.389C-31.8361 196.249 20.2007 192.269 58.5158 213.939C75.2892 223.409 78.1183 235.569 97.1911 242.069C110.786 246.729 133.662 252.149 148.391 253.239C274.716 262.559 376.459 256.239 501.237 251.699C540.442 250.269 607.112 241.899 641.56 257.559C656.648 264.419 669.205 274.109 684.028 281.289C768.563 322.219 889.357 269.039 971.328 312.879C980.642 317.879 989.118 324.009 999.587 327.369C1008.84 330.369 1018.95 330.909 1028.81 331.199C1106.8 333.519 1182.93 321.199 1260.25 317.009C1324.64 313.509 1393.06 316.419 1452.73 336.409C1453.38 332.783 1454.06 329.169 1454.75 325.569Z" fill="white"/>
</svg>
